<mxfile host="app.diagrams.net" agent="Mozilla/5.0 (Macintosh; Intel Mac OS X 10_15_7) AppleWebKit/537.36 (KHTML, like Gecko) Chrome/131.0.0.0 Safari/537.36" version="25.0.3">
  <diagram name="Page-1" id="ZL7CvpHYKsF7zN-mTfum">
    <mxGraphModel dx="2405" dy="2086" grid="1" gridSize="10" guides="1" tooltips="1" connect="1" arrows="1" fold="1" page="1" pageScale="1" pageWidth="827" pageHeight="1169" math="0" shadow="0">
      <root>
        <mxCell id="0" />
        <mxCell id="1" parent="0" />
        <mxCell id="0rb4Zrxj2Xsdeb0Qz9Yo-64" value="" style="rounded=0;whiteSpace=wrap;html=1;" vertex="1" parent="1">
          <mxGeometry x="1110" y="-960" width="320" height="500" as="geometry" />
        </mxCell>
        <mxCell id="0rb4Zrxj2Xsdeb0Qz9Yo-1" value="&lt;b&gt;&lt;font style=&quot;font-size: 18px;&quot;&gt;Silo&lt;/font&gt;&lt;/b&gt;" style="rounded=1;whiteSpace=wrap;html=1;labelPosition=center;verticalLabelPosition=bottom;align=center;verticalAlign=top;" vertex="1" parent="1">
          <mxGeometry x="-280" y="-410" width="1400" height="610" as="geometry" />
        </mxCell>
        <mxCell id="JYhy0u5jq2PfF6oQiKI3-18" style="edgeStyle=orthogonalEdgeStyle;rounded=0;orthogonalLoop=1;jettySize=auto;html=1;entryX=0;entryY=0.5;entryDx=0;entryDy=0;" parent="1" source="JYhy0u5jq2PfF6oQiKI3-1" target="JYhy0u5jq2PfF6oQiKI3-4" edge="1">
          <mxGeometry relative="1" as="geometry" />
        </mxCell>
        <mxCell id="JYhy0u5jq2PfF6oQiKI3-19" value="SearchMatch" style="edgeLabel;html=1;align=center;verticalAlign=middle;resizable=0;points=[];" parent="JYhy0u5jq2PfF6oQiKI3-18" vertex="1" connectable="0">
          <mxGeometry x="-0.0679" y="1" relative="1" as="geometry">
            <mxPoint as="offset" />
          </mxGeometry>
        </mxCell>
        <mxCell id="JYhy0u5jq2PfF6oQiKI3-56" style="edgeStyle=orthogonalEdgeStyle;rounded=0;orthogonalLoop=1;jettySize=auto;html=1;entryX=0;entryY=0.75;entryDx=0;entryDy=0;" parent="1" source="JYhy0u5jq2PfF6oQiKI3-1" target="JYhy0u5jq2PfF6oQiKI3-4" edge="1">
          <mxGeometry relative="1" as="geometry">
            <Array as="points">
              <mxPoint x="30" y="-27" />
            </Array>
          </mxGeometry>
        </mxCell>
        <mxCell id="JYhy0u5jq2PfF6oQiKI3-57" value="CancelSearch" style="edgeLabel;html=1;align=center;verticalAlign=middle;resizable=0;points=[];" parent="JYhy0u5jq2PfF6oQiKI3-56" vertex="1" connectable="0">
          <mxGeometry x="-0.1333" y="4" relative="1" as="geometry">
            <mxPoint y="1" as="offset" />
          </mxGeometry>
        </mxCell>
        <mxCell id="JYhy0u5jq2PfF6oQiKI3-1" value="&lt;b&gt;Player&lt;/b&gt;&lt;div&gt;- UserState: UserStateDto&lt;/div&gt;&lt;div&gt;- SelectedRegion: RegionDto&lt;/div&gt;&lt;div&gt;- NumberOfLifes: int&lt;/div&gt;&lt;div&gt;- CardsOnHand: List&amp;lt;CardDto&amp;gt;&lt;/div&gt;&lt;div&gt;- IsOut: boolean&lt;/div&gt;&lt;div&gt;- lastAction: PlayerActionDto&lt;/div&gt;&lt;div&gt;- CurrentMatchId?: Guid&lt;/div&gt;" style="rounded=0;whiteSpace=wrap;html=1;fillColor=#fff2cc;strokeColor=#d6b656;" parent="1" vertex="1">
          <mxGeometry x="-260" y="-110" width="230" height="120" as="geometry" />
        </mxCell>
        <mxCell id="JYhy0u5jq2PfF6oQiKI3-3" value="&lt;b&gt;CardDealer&lt;/b&gt;&lt;div&gt;- CardsOnTable: CardDto[]&lt;/div&gt;&lt;div&gt;- Players: string[]&lt;/div&gt;&lt;div&gt;- IndexOfCurrentPlayer: int&lt;/div&gt;&lt;div&gt;- RoundState: RoundStateDto&lt;/div&gt;" style="rounded=0;whiteSpace=wrap;html=1;fillColor=#fff2cc;strokeColor=#d6b656;" parent="1" vertex="1">
          <mxGeometry x="185" y="-340" width="200" height="100" as="geometry" />
        </mxCell>
        <mxCell id="JYhy0u5jq2PfF6oQiKI3-20" style="edgeStyle=orthogonalEdgeStyle;rounded=0;orthogonalLoop=1;jettySize=auto;html=1;entryX=0;entryY=0.5;entryDx=0;entryDy=0;" parent="1" source="JYhy0u5jq2PfF6oQiKI3-4" target="JYhy0u5jq2PfF6oQiKI3-5" edge="1">
          <mxGeometry relative="1" as="geometry" />
        </mxCell>
        <mxCell id="JYhy0u5jq2PfF6oQiKI3-21" value="Create" style="edgeLabel;html=1;align=center;verticalAlign=middle;resizable=0;points=[];" parent="JYhy0u5jq2PfF6oQiKI3-20" vertex="1" connectable="0">
          <mxGeometry x="0.0226" y="-1" relative="1" as="geometry">
            <mxPoint x="-6" y="-1" as="offset" />
          </mxGeometry>
        </mxCell>
        <mxCell id="0rb4Zrxj2Xsdeb0Qz9Yo-4" style="edgeStyle=orthogonalEdgeStyle;rounded=0;orthogonalLoop=1;jettySize=auto;html=1;entryX=0.004;entryY=0.683;entryDx=0;entryDy=0;exitX=1;exitY=0.75;exitDx=0;exitDy=0;entryPerimeter=0;" edge="1" parent="1" source="JYhy0u5jq2PfF6oQiKI3-4" target="JYhy0u5jq2PfF6oQiKI3-5">
          <mxGeometry relative="1" as="geometry" />
        </mxCell>
        <mxCell id="0rb4Zrxj2Xsdeb0Qz9Yo-5" value="OnUpdateOfRoundState" style="edgeLabel;html=1;align=center;verticalAlign=middle;resizable=0;points=[];" vertex="1" connectable="0" parent="0rb4Zrxj2Xsdeb0Qz9Yo-4">
          <mxGeometry x="-0.2391" y="1" relative="1" as="geometry">
            <mxPoint x="12" as="offset" />
          </mxGeometry>
        </mxCell>
        <mxCell id="JYhy0u5jq2PfF6oQiKI3-4" value="&lt;b&gt;MatchMaker&lt;/b&gt;&lt;div&gt;- PlayersSearchingGame: string[]&lt;/div&gt;" style="rounded=0;whiteSpace=wrap;html=1;fillColor=#fff2cc;strokeColor=#d6b656;" parent="1" vertex="1">
          <mxGeometry x="180" y="-95" width="210" height="90" as="geometry" />
        </mxCell>
        <mxCell id="0rb4Zrxj2Xsdeb0Qz9Yo-16" style="edgeStyle=orthogonalEdgeStyle;rounded=0;orthogonalLoop=1;jettySize=auto;html=1;entryX=0.5;entryY=1;entryDx=0;entryDy=0;" edge="1" parent="1" source="JYhy0u5jq2PfF6oQiKI3-5" target="0rb4Zrxj2Xsdeb0Qz9Yo-15">
          <mxGeometry relative="1" as="geometry" />
        </mxCell>
        <mxCell id="0rb4Zrxj2Xsdeb0Qz9Yo-17" value="SendGameMatch" style="edgeLabel;html=1;align=center;verticalAlign=middle;resizable=0;points=[];" vertex="1" connectable="0" parent="0rb4Zrxj2Xsdeb0Qz9Yo-16">
          <mxGeometry x="0.2378" y="-1" relative="1" as="geometry">
            <mxPoint y="-1" as="offset" />
          </mxGeometry>
        </mxCell>
        <mxCell id="0rb4Zrxj2Xsdeb0Qz9Yo-25" style="edgeStyle=orthogonalEdgeStyle;rounded=0;orthogonalLoop=1;jettySize=auto;html=1;entryX=1;entryY=0.5;entryDx=0;entryDy=0;" edge="1" parent="1">
          <mxGeometry relative="1" as="geometry">
            <mxPoint x="590.0666666666671" y="-90" as="sourcePoint" />
            <mxPoint x="385" y="-270" as="targetPoint" />
            <Array as="points">
              <mxPoint x="590" y="-270" />
            </Array>
          </mxGeometry>
        </mxCell>
        <mxCell id="0rb4Zrxj2Xsdeb0Qz9Yo-26" value="Initiate Round" style="edgeLabel;html=1;align=center;verticalAlign=middle;resizable=0;points=[];" vertex="1" connectable="0" parent="0rb4Zrxj2Xsdeb0Qz9Yo-25">
          <mxGeometry x="0.3179" y="-2" relative="1" as="geometry">
            <mxPoint as="offset" />
          </mxGeometry>
        </mxCell>
        <mxCell id="0rb4Zrxj2Xsdeb0Qz9Yo-37" style="edgeStyle=orthogonalEdgeStyle;rounded=0;orthogonalLoop=1;jettySize=auto;html=1;entryX=1;entryY=0.25;entryDx=0;entryDy=0;" edge="1" parent="1" source="JYhy0u5jq2PfF6oQiKI3-5" target="JYhy0u5jq2PfF6oQiKI3-3">
          <mxGeometry relative="1" as="geometry">
            <Array as="points">
              <mxPoint x="620" y="-315" />
            </Array>
          </mxGeometry>
        </mxCell>
        <mxCell id="0rb4Zrxj2Xsdeb0Qz9Yo-38" value="GetRound" style="edgeLabel;html=1;align=center;verticalAlign=middle;resizable=0;points=[];" vertex="1" connectable="0" parent="0rb4Zrxj2Xsdeb0Qz9Yo-37">
          <mxGeometry x="0.3667" y="-2" relative="1" as="geometry">
            <mxPoint x="1" as="offset" />
          </mxGeometry>
        </mxCell>
        <mxCell id="0rb4Zrxj2Xsdeb0Qz9Yo-47" style="edgeStyle=orthogonalEdgeStyle;rounded=0;orthogonalLoop=1;jettySize=auto;html=1;entryX=0.75;entryY=1;entryDx=0;entryDy=0;exitX=0.25;exitY=1;exitDx=0;exitDy=0;" edge="1" parent="1" source="JYhy0u5jq2PfF6oQiKI3-5" target="JYhy0u5jq2PfF6oQiKI3-1">
          <mxGeometry relative="1" as="geometry">
            <Array as="points">
              <mxPoint x="632" y="60" />
              <mxPoint x="-88" y="60" />
            </Array>
          </mxGeometry>
        </mxCell>
        <mxCell id="0rb4Zrxj2Xsdeb0Qz9Yo-48" value="Set (UserState, CurrentMatchId)" style="edgeLabel;html=1;align=center;verticalAlign=middle;resizable=0;points=[];" vertex="1" connectable="0" parent="0rb4Zrxj2Xsdeb0Qz9Yo-47">
          <mxGeometry x="0.1105" y="-3" relative="1" as="geometry">
            <mxPoint as="offset" />
          </mxGeometry>
        </mxCell>
        <mxCell id="JYhy0u5jq2PfF6oQiKI3-5" value="&lt;b&gt;Match&lt;/b&gt;&lt;div&gt;- Players: string[]&lt;/div&gt;&lt;div&gt;- MatchStatus: MatchStatusDto&lt;/div&gt;&lt;div&gt;- RankPlayers: string[]&lt;/div&gt;&lt;div&gt;- CurrentRoundNumber: int&lt;/div&gt;&lt;div&gt;- PlayersWhoRequestedNewMatch: string[]&lt;/div&gt;&lt;div&gt;&lt;br&gt;&lt;/div&gt;" style="rounded=0;whiteSpace=wrap;html=1;fillColor=#fff2cc;strokeColor=#d6b656;" parent="1" vertex="1">
          <mxGeometry x="567" y="-110" width="260" height="120" as="geometry" />
        </mxCell>
        <mxCell id="0rb4Zrxj2Xsdeb0Qz9Yo-7" style="edgeStyle=orthogonalEdgeStyle;rounded=0;orthogonalLoop=1;jettySize=auto;html=1;entryX=0.5;entryY=0;entryDx=0;entryDy=0;exitX=0.75;exitY=1;exitDx=0;exitDy=0;" edge="1" parent="1">
          <mxGeometry relative="1" as="geometry">
            <mxPoint x="631.18" y="-530" as="sourcePoint" />
            <mxPoint x="706.93" y="-110" as="targetPoint" />
            <Array as="points">
              <mxPoint x="439.93" y="-460" />
              <mxPoint x="706.93" y="-460" />
            </Array>
          </mxGeometry>
        </mxCell>
        <mxCell id="0rb4Zrxj2Xsdeb0Qz9Yo-8" value="GetMatch" style="edgeLabel;html=1;align=center;verticalAlign=middle;resizable=0;points=[];" vertex="1" connectable="0" parent="0rb4Zrxj2Xsdeb0Qz9Yo-7">
          <mxGeometry x="0.4663" y="-1" relative="1" as="geometry">
            <mxPoint y="1" as="offset" />
          </mxGeometry>
        </mxCell>
        <mxCell id="0rb4Zrxj2Xsdeb0Qz9Yo-9" style="edgeStyle=orthogonalEdgeStyle;rounded=0;orthogonalLoop=1;jettySize=auto;html=1;entryX=0.25;entryY=0;entryDx=0;entryDy=0;exitX=0.444;exitY=0.996;exitDx=0;exitDy=0;exitPerimeter=0;" edge="1" parent="1">
          <mxGeometry relative="1" as="geometry">
            <mxPoint x="390.0700000000002" y="-530.6800000000001" as="sourcePoint" />
            <mxPoint x="656.33" y="-110" as="targetPoint" />
            <Array as="points">
              <mxPoint x="390.33" y="-430" />
              <mxPoint x="656.33" y="-430" />
            </Array>
          </mxGeometry>
        </mxCell>
        <mxCell id="0rb4Zrxj2Xsdeb0Qz9Yo-10" value="NextRound" style="edgeLabel;html=1;align=center;verticalAlign=middle;resizable=0;points=[];" vertex="1" connectable="0" parent="0rb4Zrxj2Xsdeb0Qz9Yo-9">
          <mxGeometry x="0.6506" relative="1" as="geometry">
            <mxPoint as="offset" />
          </mxGeometry>
        </mxCell>
        <mxCell id="0rb4Zrxj2Xsdeb0Qz9Yo-11" style="edgeStyle=orthogonalEdgeStyle;rounded=0;orthogonalLoop=1;jettySize=auto;html=1;entryX=0.75;entryY=0;entryDx=0;entryDy=0;" edge="1" parent="1" source="0rb4Zrxj2Xsdeb0Qz9Yo-2" target="JYhy0u5jq2PfF6oQiKI3-5">
          <mxGeometry relative="1" as="geometry">
            <Array as="points">
              <mxPoint x="520" y="-490" />
              <mxPoint x="762" y="-490" />
            </Array>
          </mxGeometry>
        </mxCell>
        <mxCell id="0rb4Zrxj2Xsdeb0Qz9Yo-12" value="Reset" style="edgeLabel;html=1;align=center;verticalAlign=middle;resizable=0;points=[];" vertex="1" connectable="0" parent="0rb4Zrxj2Xsdeb0Qz9Yo-11">
          <mxGeometry x="0.281" y="4" relative="1" as="geometry">
            <mxPoint as="offset" />
          </mxGeometry>
        </mxCell>
        <mxCell id="0rb4Zrxj2Xsdeb0Qz9Yo-27" style="edgeStyle=orthogonalEdgeStyle;rounded=0;orthogonalLoop=1;jettySize=auto;html=1;entryX=0.75;entryY=0;entryDx=0;entryDy=0;exitX=0.407;exitY=1.004;exitDx=0;exitDy=0;exitPerimeter=0;" edge="1" parent="1" source="0rb4Zrxj2Xsdeb0Qz9Yo-2" target="JYhy0u5jq2PfF6oQiKI3-3">
          <mxGeometry relative="1" as="geometry" />
        </mxCell>
        <mxCell id="0rb4Zrxj2Xsdeb0Qz9Yo-28" value="Shove" style="edgeLabel;html=1;align=center;verticalAlign=middle;resizable=0;points=[];" vertex="1" connectable="0" parent="0rb4Zrxj2Xsdeb0Qz9Yo-27">
          <mxGeometry x="0.4622" y="1" relative="1" as="geometry">
            <mxPoint y="11" as="offset" />
          </mxGeometry>
        </mxCell>
        <mxCell id="0rb4Zrxj2Xsdeb0Qz9Yo-29" style="edgeStyle=orthogonalEdgeStyle;rounded=0;orthogonalLoop=1;jettySize=auto;html=1;entryX=0.5;entryY=0;entryDx=0;entryDy=0;exitX=0.347;exitY=1.012;exitDx=0;exitDy=0;exitPerimeter=0;" edge="1" parent="1">
          <mxGeometry relative="1" as="geometry">
            <mxPoint x="300.0149999999999" y="-530" as="sourcePoint" />
            <mxPoint x="300.27" y="-342.04" as="targetPoint" />
          </mxGeometry>
        </mxCell>
        <mxCell id="0rb4Zrxj2Xsdeb0Qz9Yo-30" value="Close" style="edgeLabel;html=1;align=center;verticalAlign=middle;resizable=0;points=[];" vertex="1" connectable="0" parent="0rb4Zrxj2Xsdeb0Qz9Yo-29">
          <mxGeometry x="0.4373" y="3" relative="1" as="geometry">
            <mxPoint x="-3" y="1" as="offset" />
          </mxGeometry>
        </mxCell>
        <mxCell id="0rb4Zrxj2Xsdeb0Qz9Yo-31" style="edgeStyle=orthogonalEdgeStyle;rounded=0;orthogonalLoop=1;jettySize=auto;html=1;entryX=0.25;entryY=0;entryDx=0;entryDy=0;exitX=0.287;exitY=1.012;exitDx=0;exitDy=0;exitPerimeter=0;" edge="1" parent="1">
          <mxGeometry relative="1" as="geometry">
            <mxPoint x="259.995" y="-527.96" as="sourcePoint" />
            <mxPoint x="260.35" y="-340" as="targetPoint" />
          </mxGeometry>
        </mxCell>
        <mxCell id="0rb4Zrxj2Xsdeb0Qz9Yo-32" value="ChangeCard" style="edgeLabel;html=1;align=center;verticalAlign=middle;resizable=0;points=[];" vertex="1" connectable="0" parent="0rb4Zrxj2Xsdeb0Qz9Yo-31">
          <mxGeometry x="0.4377" y="3" relative="1" as="geometry">
            <mxPoint x="-4" y="22" as="offset" />
          </mxGeometry>
        </mxCell>
        <mxCell id="0rb4Zrxj2Xsdeb0Qz9Yo-39" style="edgeStyle=orthogonalEdgeStyle;rounded=0;orthogonalLoop=1;jettySize=auto;html=1;entryX=0.5;entryY=0;entryDx=0;entryDy=0;" edge="1" parent="1" source="0rb4Zrxj2Xsdeb0Qz9Yo-2" target="JYhy0u5jq2PfF6oQiKI3-4">
          <mxGeometry relative="1" as="geometry">
            <Array as="points">
              <mxPoint x="412" y="-180" />
              <mxPoint x="285" y="-180" />
            </Array>
          </mxGeometry>
        </mxCell>
        <mxCell id="0rb4Zrxj2Xsdeb0Qz9Yo-40" value="MatchPlayers" style="edgeLabel;html=1;align=center;verticalAlign=middle;resizable=0;points=[];" vertex="1" connectable="0" parent="0rb4Zrxj2Xsdeb0Qz9Yo-39">
          <mxGeometry x="0.1497" y="-4" relative="1" as="geometry">
            <mxPoint y="-1" as="offset" />
          </mxGeometry>
        </mxCell>
        <mxCell id="0rb4Zrxj2Xsdeb0Qz9Yo-41" style="edgeStyle=orthogonalEdgeStyle;rounded=0;orthogonalLoop=1;jettySize=auto;html=1;entryX=0.75;entryY=0;entryDx=0;entryDy=0;exitX=0;exitY=0.5;exitDx=0;exitDy=0;" edge="1" parent="1" source="0rb4Zrxj2Xsdeb0Qz9Yo-2">
          <mxGeometry relative="1" as="geometry">
            <mxPoint x="-127.47" y="-614.9333333333334" as="sourcePoint" />
            <mxPoint x="-209.97" y="-110" as="targetPoint" />
          </mxGeometry>
        </mxCell>
        <mxCell id="0rb4Zrxj2Xsdeb0Qz9Yo-56" value="GetUserState" style="edgeLabel;html=1;align=center;verticalAlign=middle;resizable=0;points=[];" vertex="1" connectable="0" parent="0rb4Zrxj2Xsdeb0Qz9Yo-41">
          <mxGeometry x="-0.0656" y="-1" relative="1" as="geometry">
            <mxPoint x="61" y="-128" as="offset" />
          </mxGeometry>
        </mxCell>
        <mxCell id="0rb4Zrxj2Xsdeb0Qz9Yo-2" value="&lt;b&gt;&lt;font style=&quot;font-size: 20px;&quot;&gt;Server&lt;/font&gt;&lt;/b&gt;" style="rounded=1;whiteSpace=wrap;html=1;labelPosition=center;verticalLabelPosition=middle;align=center;verticalAlign=middle;fillColor=#ffe6cc;strokeColor=#d79b00;" vertex="1" parent="1">
          <mxGeometry x="-5" y="-700" width="835" height="170" as="geometry" />
        </mxCell>
        <mxCell id="0rb4Zrxj2Xsdeb0Qz9Yo-13" value="Grain" style="rounded=0;whiteSpace=wrap;html=1;fillColor=#fff2cc;strokeColor=#d6b656;" vertex="1" parent="1">
          <mxGeometry x="1210" y="-761" width="120" height="70" as="geometry" />
        </mxCell>
        <mxCell id="0rb4Zrxj2Xsdeb0Qz9Yo-14" value="Service" style="rounded=0;whiteSpace=wrap;html=1;fillColor=#d5e8d4;strokeColor=#82b366;" vertex="1" parent="1">
          <mxGeometry x="1210" y="-660" width="120" height="70" as="geometry" />
        </mxCell>
        <mxCell id="0rb4Zrxj2Xsdeb0Qz9Yo-18" style="edgeStyle=orthogonalEdgeStyle;rounded=0;orthogonalLoop=1;jettySize=auto;html=1;entryX=1;entryY=0.5;entryDx=0;entryDy=0;dashed=1;" edge="1" parent="1" source="0rb4Zrxj2Xsdeb0Qz9Yo-15" target="0rb4Zrxj2Xsdeb0Qz9Yo-2">
          <mxGeometry relative="1" as="geometry">
            <Array as="points">
              <mxPoint x="995" y="-615" />
            </Array>
          </mxGeometry>
        </mxCell>
        <mxCell id="0rb4Zrxj2Xsdeb0Qz9Yo-19" value="SendGameMatch" style="edgeLabel;html=1;align=center;verticalAlign=middle;resizable=0;points=[];" vertex="1" connectable="0" parent="0rb4Zrxj2Xsdeb0Qz9Yo-18">
          <mxGeometry x="-0.0246" y="-1" relative="1" as="geometry">
            <mxPoint as="offset" />
          </mxGeometry>
        </mxCell>
        <mxCell id="0rb4Zrxj2Xsdeb0Qz9Yo-15" value="&lt;b&gt;SendGameMatchService&lt;/b&gt;" style="rounded=0;whiteSpace=wrap;html=1;fillColor=#d5e8d4;strokeColor=#82b366;" vertex="1" parent="1">
          <mxGeometry x="890" y="-335" width="210" height="90" as="geometry" />
        </mxCell>
        <mxCell id="0rb4Zrxj2Xsdeb0Qz9Yo-20" value="" style="endArrow=classic;html=1;rounded=0;" edge="1" parent="1">
          <mxGeometry width="50" height="50" relative="1" as="geometry">
            <mxPoint x="1202.5" y="-540" as="sourcePoint" />
            <mxPoint x="1317.5" y="-540" as="targetPoint" />
          </mxGeometry>
        </mxCell>
        <mxCell id="0rb4Zrxj2Xsdeb0Qz9Yo-21" value="Grain Method Call" style="edgeLabel;html=1;align=center;verticalAlign=bottom;resizable=0;points=[];labelPosition=center;verticalLabelPosition=top;" vertex="1" connectable="0" parent="0rb4Zrxj2Xsdeb0Qz9Yo-20">
          <mxGeometry x="0.0522" y="-3" relative="1" as="geometry">
            <mxPoint x="8" y="-3" as="offset" />
          </mxGeometry>
        </mxCell>
        <mxCell id="0rb4Zrxj2Xsdeb0Qz9Yo-23" value="" style="endArrow=classic;html=1;rounded=0;dashed=1;" edge="1" parent="1">
          <mxGeometry width="50" height="50" relative="1" as="geometry">
            <mxPoint x="1210" y="-500" as="sourcePoint" />
            <mxPoint x="1330" y="-500" as="targetPoint" />
          </mxGeometry>
        </mxCell>
        <mxCell id="0rb4Zrxj2Xsdeb0Qz9Yo-24" value="HTTP Call" style="edgeLabel;html=1;align=center;verticalAlign=middle;resizable=0;points=[];" vertex="1" connectable="0" parent="0rb4Zrxj2Xsdeb0Qz9Yo-23">
          <mxGeometry x="-0.1722" relative="1" as="geometry">
            <mxPoint x="11" y="-10" as="offset" />
          </mxGeometry>
        </mxCell>
        <mxCell id="0rb4Zrxj2Xsdeb0Qz9Yo-35" style="edgeStyle=orthogonalEdgeStyle;rounded=0;orthogonalLoop=1;jettySize=auto;html=1;entryX=0.25;entryY=0;entryDx=0;entryDy=0;exitX=0.287;exitY=1.012;exitDx=0;exitDy=0;exitPerimeter=0;" edge="1" parent="1">
          <mxGeometry relative="1" as="geometry">
            <mxPoint x="220.005" y="-527.96" as="sourcePoint" />
            <mxPoint x="220.36" y="-340" as="targetPoint" />
          </mxGeometry>
        </mxCell>
        <mxCell id="0rb4Zrxj2Xsdeb0Qz9Yo-36" value="ChangeCard" style="edgeLabel;html=1;align=center;verticalAlign=middle;resizable=0;points=[];" vertex="1" connectable="0" parent="0rb4Zrxj2Xsdeb0Qz9Yo-35">
          <mxGeometry x="0.4377" y="3" relative="1" as="geometry">
            <mxPoint x="-4" y="2" as="offset" />
          </mxGeometry>
        </mxCell>
        <mxCell id="0rb4Zrxj2Xsdeb0Qz9Yo-42" style="edgeStyle=orthogonalEdgeStyle;rounded=0;orthogonalLoop=1;jettySize=auto;html=1;entryX=0.859;entryY=1.017;entryDx=0;entryDy=0;entryPerimeter=0;exitX=0.077;exitY=1.006;exitDx=0;exitDy=0;exitPerimeter=0;" edge="1" parent="1" source="JYhy0u5jq2PfF6oQiKI3-5" target="JYhy0u5jq2PfF6oQiKI3-1">
          <mxGeometry relative="1" as="geometry">
            <Array as="points">
              <mxPoint x="587" y="30" />
              <mxPoint x="-62" y="30" />
            </Array>
          </mxGeometry>
        </mxCell>
        <mxCell id="0rb4Zrxj2Xsdeb0Qz9Yo-43" value="Get (NumberOfLifes, IsOut, CardsOnHand, UserState, LastAction)" style="edgeLabel;html=1;align=center;verticalAlign=middle;resizable=0;points=[];" vertex="1" connectable="0" parent="0rb4Zrxj2Xsdeb0Qz9Yo-42">
          <mxGeometry x="0.0347" y="-1" relative="1" as="geometry">
            <mxPoint x="-1" as="offset" />
          </mxGeometry>
        </mxCell>
        <mxCell id="0rb4Zrxj2Xsdeb0Qz9Yo-49" style="edgeStyle=orthogonalEdgeStyle;rounded=0;orthogonalLoop=1;jettySize=auto;html=1;entryX=0.587;entryY=1.006;entryDx=0;entryDy=0;entryPerimeter=0;" edge="1" parent="1" source="JYhy0u5jq2PfF6oQiKI3-5" target="JYhy0u5jq2PfF6oQiKI3-1">
          <mxGeometry relative="1" as="geometry">
            <Array as="points">
              <mxPoint x="697" y="90" />
              <mxPoint x="-125" y="90" />
            </Array>
          </mxGeometry>
        </mxCell>
        <mxCell id="0rb4Zrxj2Xsdeb0Qz9Yo-50" value="Reset" style="edgeLabel;html=1;align=center;verticalAlign=middle;resizable=0;points=[];" vertex="1" connectable="0" parent="0rb4Zrxj2Xsdeb0Qz9Yo-49">
          <mxGeometry x="0.121" y="-3" relative="1" as="geometry">
            <mxPoint x="1" as="offset" />
          </mxGeometry>
        </mxCell>
        <mxCell id="0rb4Zrxj2Xsdeb0Qz9Yo-51" style="edgeStyle=orthogonalEdgeStyle;rounded=0;orthogonalLoop=1;jettySize=auto;html=1;entryX=0.436;entryY=1.017;entryDx=0;entryDy=0;entryPerimeter=0;exitX=0.615;exitY=0.994;exitDx=0;exitDy=0;exitPerimeter=0;" edge="1" parent="1" source="JYhy0u5jq2PfF6oQiKI3-5" target="JYhy0u5jq2PfF6oQiKI3-1">
          <mxGeometry relative="1" as="geometry">
            <Array as="points">
              <mxPoint x="727" y="120" />
              <mxPoint x="-160" y="120" />
            </Array>
          </mxGeometry>
        </mxCell>
        <mxCell id="0rb4Zrxj2Xsdeb0Qz9Yo-52" value="RemoveLife" style="edgeLabel;html=1;align=center;verticalAlign=middle;resizable=0;points=[];" vertex="1" connectable="0" parent="0rb4Zrxj2Xsdeb0Qz9Yo-51">
          <mxGeometry x="0.1097" y="-5" relative="1" as="geometry">
            <mxPoint as="offset" />
          </mxGeometry>
        </mxCell>
        <mxCell id="0rb4Zrxj2Xsdeb0Qz9Yo-53" style="edgeStyle=orthogonalEdgeStyle;rounded=0;orthogonalLoop=1;jettySize=auto;html=1;entryX=0.865;entryY=-0.006;entryDx=0;entryDy=0;entryPerimeter=0;exitX=0.071;exitY=0.004;exitDx=0;exitDy=0;exitPerimeter=0;" edge="1" parent="1" source="JYhy0u5jq2PfF6oQiKI3-4" target="JYhy0u5jq2PfF6oQiKI3-1">
          <mxGeometry relative="1" as="geometry">
            <Array as="points">
              <mxPoint x="195" y="-130" />
              <mxPoint x="-61" y="-130" />
            </Array>
          </mxGeometry>
        </mxCell>
        <mxCell id="0rb4Zrxj2Xsdeb0Qz9Yo-54" value="Get (IsOut, CardsOnHand, LastAction)" style="edgeLabel;html=1;align=center;verticalAlign=middle;resizable=0;points=[];" vertex="1" connectable="0" parent="0rb4Zrxj2Xsdeb0Qz9Yo-53">
          <mxGeometry x="0.0771" y="-1" relative="1" as="geometry">
            <mxPoint x="-1" as="offset" />
          </mxGeometry>
        </mxCell>
        <mxCell id="0rb4Zrxj2Xsdeb0Qz9Yo-55" value="Set (CardsOnHand, LastAction)" style="edgeStyle=orthogonalEdgeStyle;rounded=0;orthogonalLoop=1;jettySize=auto;html=1;entryX=0.709;entryY=-0.006;entryDx=0;entryDy=0;entryPerimeter=0;exitX=0.205;exitY=0.004;exitDx=0;exitDy=0;exitPerimeter=0;" edge="1" parent="1" source="JYhy0u5jq2PfF6oQiKI3-4" target="JYhy0u5jq2PfF6oQiKI3-1">
          <mxGeometry relative="1" as="geometry">
            <Array as="points">
              <mxPoint x="220" y="-95" />
              <mxPoint x="220" y="-160" />
              <mxPoint x="-97" y="-160" />
            </Array>
            <mxPoint as="offset" />
          </mxGeometry>
        </mxCell>
        <mxCell id="0rb4Zrxj2Xsdeb0Qz9Yo-57" style="edgeStyle=orthogonalEdgeStyle;rounded=0;orthogonalLoop=1;jettySize=auto;html=1;entryX=0.378;entryY=-0.017;entryDx=0;entryDy=0;entryPerimeter=0;exitX=0.002;exitY=0.69;exitDx=0;exitDy=0;exitPerimeter=0;" edge="1" parent="1" source="0rb4Zrxj2Xsdeb0Qz9Yo-2" target="JYhy0u5jq2PfF6oQiKI3-1">
          <mxGeometry relative="1" as="geometry" />
        </mxCell>
        <mxCell id="0rb4Zrxj2Xsdeb0Qz9Yo-58" value="SearchMatch" style="edgeLabel;html=1;align=center;verticalAlign=middle;resizable=0;points=[];" vertex="1" connectable="0" parent="0rb4Zrxj2Xsdeb0Qz9Yo-57">
          <mxGeometry x="-0.0604" y="4" relative="1" as="geometry">
            <mxPoint x="49" y="-133" as="offset" />
          </mxGeometry>
        </mxCell>
        <mxCell id="0rb4Zrxj2Xsdeb0Qz9Yo-59" style="edgeStyle=orthogonalEdgeStyle;rounded=0;orthogonalLoop=1;jettySize=auto;html=1;entryX=0.564;entryY=-0.028;entryDx=0;entryDy=0;entryPerimeter=0;exitX=0;exitY=0.871;exitDx=0;exitDy=0;exitPerimeter=0;" edge="1" parent="1" source="0rb4Zrxj2Xsdeb0Qz9Yo-2" target="JYhy0u5jq2PfF6oQiKI3-1">
          <mxGeometry relative="1" as="geometry" />
        </mxCell>
        <mxCell id="0rb4Zrxj2Xsdeb0Qz9Yo-60" value="CancelSearch" style="edgeLabel;html=1;align=center;verticalAlign=middle;resizable=0;points=[];" vertex="1" connectable="0" parent="0rb4Zrxj2Xsdeb0Qz9Yo-59">
          <mxGeometry x="0.2245" y="1" relative="1" as="geometry">
            <mxPoint x="49" y="-218" as="offset" />
          </mxGeometry>
        </mxCell>
        <mxCell id="0rb4Zrxj2Xsdeb0Qz9Yo-61" style="edgeStyle=orthogonalEdgeStyle;rounded=0;orthogonalLoop=1;jettySize=auto;html=1;entryX=0.083;entryY=-0.028;entryDx=0;entryDy=0;entryPerimeter=0;" edge="1" parent="1" target="JYhy0u5jq2PfF6oQiKI3-1">
          <mxGeometry relative="1" as="geometry">
            <mxPoint x="-10" y="-640" as="sourcePoint" />
          </mxGeometry>
        </mxCell>
        <mxCell id="0rb4Zrxj2Xsdeb0Qz9Yo-62" value="GetCurrentMatchId" style="edgeLabel;html=1;align=center;verticalAlign=middle;resizable=0;points=[];" vertex="1" connectable="0" parent="0rb4Zrxj2Xsdeb0Qz9Yo-61">
          <mxGeometry x="0.1511" y="-3" relative="1" as="geometry">
            <mxPoint x="74" y="-206" as="offset" />
          </mxGeometry>
        </mxCell>
        <mxCell id="0rb4Zrxj2Xsdeb0Qz9Yo-63" value="Backend Server" style="rounded=0;whiteSpace=wrap;html=1;fillColor=#ffe6cc;strokeColor=#d79b00;" vertex="1" parent="1">
          <mxGeometry x="1210" y="-860" width="120" height="70" as="geometry" />
        </mxCell>
        <mxCell id="0rb4Zrxj2Xsdeb0Qz9Yo-65" value="Legend" style="text;html=1;align=center;verticalAlign=middle;resizable=0;points=[];autosize=1;strokeColor=none;fillColor=none;fontStyle=1;fontSize=21;" vertex="1" parent="1">
          <mxGeometry x="1225" y="-930" width="90" height="40" as="geometry" />
        </mxCell>
      </root>
    </mxGraphModel>
  </diagram>
</mxfile>
